<?xml version="1.0" standalone="no"?>
<!DOCTYPE svg PUBLIC "-//W3C//DTD SVG 20010904//EN"
 "http://www.w3.org/TR/2001/REC-SVG-20010904/DTD/svg10.dtd">
<svg version="1.0" xmlns="http://www.w3.org/2000/svg"
 width="908.000000pt" height="908.000000pt" viewBox="0 0 908.000000 908.000000"
 preserveAspectRatio="xMidYMid meet">
<metadata>
Created by potrace 1.14, written by Peter Selinger 2001-2017
</metadata>
<g transform="translate(0.000000,908.000000) scale(0.100000,-0.100000)"
fill="#000000" stroke="none">
<path d="M4294 5327 c0 -1332 -4 -2439 -7 -2460 -13 -72 -60 -137 -112 -154
-70 -24 -133 -5 -298 89 -66 38 -123 68 -127 68 -5 0 -10 3 -12 8 -3 6 -68 45
-235 139 -23 12 -44 23 -48 23 -3 0 -4 -275 -3 -612 l3 -612 55 -33 c30 -18
62 -36 70 -40 8 -4 48 -26 88 -50 40 -24 77 -43 82 -43 6 0 10 -4 10 -8 0 -5
16 -14 35 -22 19 -8 35 -17 35 -22 0 -4 4 -8 9 -8 5 0 43 -20 85 -45 115 -68
252 -131 367 -169 131 -43 151 -47 279 -51 82 -3 123 1 185 17 44 11 83 26 87
32 4 6 8 7 8 3 0 -13 111 63 162 111 27 25 66 73 86 107 34 53 46 76 82 160
11 25 20 58 18 65 -1 3 4 15 10 26 6 12 14 36 17 55 3 19 7 45 10 59 11 57 16
97 22 155 7 76 11 5073 3 5084 -3 4 -39 28 -80 52 -41 24 -84 49 -95 56 -11 6
-33 19 -50 27 -16 9 -37 20 -45 26 -19 12 -93 55 -280 161 -52 29 -96 57 -98
61 -2 5 -7 8 -12 8 -10 0 -251 137 -264 151 -6 5 -17 9 -25 9 -14 0 -16 -241
-17 -2423z"/>
<path d="M2723 6635 c-51 -35 -96 -65 -100 -67 -13 -5 -248 -161 -253 -167 -3
-4 -22 -15 -42 -26 -21 -11 -38 -23 -38 -27 0 -3 -9 -10 -20 -13 -11 -3 -26
-12 -32 -18 -7 -7 -51 -37 -98 -67 -47 -30 -87 -57 -90 -61 -3 -3 -16 -12 -29
-19 -14 -7 -30 -17 -35 -22 -6 -5 -99 -66 -206 -136 -107 -70 -208 -137 -224
-147 -16 -11 -36 -25 -45 -30 -9 -6 -110 -73 -226 -150 -115 -77 -217 -144
-227 -150 -19 -12 -226 -149 -248 -165 -35 -25 -213 -140 -217 -140 -2 0 -13
-9 -25 -20 -12 -11 -28 -20 -35 -20 -7 0 -13 -4 -13 -10 0 -5 -4 -10 -8 -10
-5 0 -73 -43 -150 -95 -78 -52 -147 -95 -152 -95 -6 0 -10 -3 -10 -8 0 -4 -45
-36 -100 -71 l-100 -64 2 -396 3 -395 160 -108 c88 -59 165 -111 170 -115 6
-5 28 -20 50 -33 22 -13 42 -27 45 -30 4 -5 133 -91 201 -135 53 -33 595 -399
599 -404 3 -3 17 -12 33 -20 15 -8 27 -18 27 -23 0 -4 7 -8 15 -8 8 0 15 -4
15 -10 0 -5 5 -10 11 -10 12 0 102 -61 107 -72 2 -5 9 -8 15 -8 7 0 24 -10 38
-22 14 -13 37 -30 52 -38 24 -13 315 -209 985 -661 117 -79 220 -148 229 -154
17 -10 29 -19 58 -43 13 -11 15 -9 16 15 1 39 1 1132 0 1168 -1 26 -12 37 -78
80 -42 28 -81 55 -87 60 -7 6 -19 15 -29 20 -31 19 -562 378 -567 384 -3 3
-13 11 -22 16 -10 6 -106 71 -215 145 -109 74 -238 162 -288 195 -49 33 -99
68 -109 78 -11 9 -25 17 -32 17 -7 0 -14 3 -16 8 -2 4 -36 29 -75 56 -82 55
-82 55 2 106 22 13 42 27 45 30 3 4 10 9 15 11 20 8 190 123 193 131 2 4 9 8
15 8 7 0 25 11 41 25 16 14 33 25 38 25 5 0 16 6 23 13 29 25 44 37 49 37 9 0
131 83 134 92 2 4 8 8 14 8 6 0 26 11 44 25 18 14 35 25 39 25 3 0 15 9 27 20
12 11 28 20 35 20 7 0 13 5 13 10 0 6 4 10 9 10 8 0 201 127 228 150 7 5 14
10 17 10 8 0 101 64 104 73 2 4 7 7 12 7 5 0 44 25 88 55 44 30 83 55 87 55 3
0 12 6 20 13 7 8 61 44 119 82 l106 68 1 46 c1 55 1 1071 0 1119 -1 17 -4 32
-8 31 -5 0 -49 -29 -100 -64z"/>
<path d="M6211 6033 l1 -598 144 -95 c80 -52 152 -99 162 -105 9 -5 19 -12 22
-15 3 -3 77 -52 165 -110 88 -58 164 -109 170 -113 5 -4 215 -143 465 -308
250 -166 458 -304 462 -308 3 -3 -71 -58 -165 -121 -95 -63 -174 -117 -177
-120 -3 -3 -45 -32 -95 -65 -49 -33 -147 -99 -217 -148 -71 -48 -132 -87 -137
-87 -5 0 -11 -4 -13 -8 -1 -5 -118 -86 -258 -180 -140 -94 -260 -175 -265
-180 -6 -5 -42 -30 -80 -55 -39 -26 -95 -64 -125 -84 l-55 -38 -2 -607 c-1
-335 0 -608 3 -608 9 0 128 84 132 93 2 4 7 7 12 7 6 0 372 241 405 267 38 30
316 213 324 213 5 0 11 4 13 8 2 7 678 466 753 512 33 21 469 314 475 320 4 4
502 339 563 379 12 8 47 31 77 50 30 20 59 43 64 51 6 9 10 173 11 395 l0 380
-28 28 c-16 15 -35 27 -42 27 -7 0 -15 4 -17 8 -4 10 -158 112 -169 112 -4 0
-9 3 -11 8 -1 4 -46 35 -98 69 -52 34 -100 67 -107 73 -7 5 -17 10 -23 10 -5
0 -10 5 -10 10 0 6 -7 10 -15 10 -8 0 -15 5 -15 10 0 6 -4 10 -9 10 -5 0 -37
19 -71 43 -81 55 -109 73 -145 93 -16 9 -32 20 -35 23 -3 3 -36 27 -75 52
-369 245 -468 309 -476 309 -5 0 -9 4 -9 8 0 5 -12 15 -27 23 -16 8 -32 18
-38 22 -37 29 -158 107 -166 107 -5 0 -9 4 -9 9 0 5 -13 14 -30 21 -16 7 -30
16 -30 21 0 5 -4 9 -10 9 -11 0 -133 82 -138 93 -2 4 -7 7 -12 7 -5 0 -91 55
-192 122 -722 479 -812 538 -824 538 -2 0 -4 -269 -3 -597z"/>
</g>
</svg>
